# xmcd
#
# Track frame offsets:
#	183
#	25620
#	51570
#	76383
#	101145
#	127745
#	153575
#	178348
#	202158
#	227150
#
# Disc length: 3370 seconds
#
# Revision: 0
# Processed by: cddbd v1.4PL0 Copyright (c) Steve Scherf et al.
# Submitted via: dBpowerAMP V4.0
#
DISCID=870d280a
DTITLE=Total Accuracy - Blues Jam Session 2
DYEAR=1900
DGENRE=Blues
TTITLE0=Midnight Blues
TTITLE1=Funky Monkey
TTITLE2=3 o'Clock In The Morning
TTITLE3=Tricksters Blues
TTITLE4=24 Bars From Mars
TTITLE5=Minor Incident
TTITLE6=C Sharp Or B Serious
TTITLE7=Jazzomatazz
TTITLE8=Pebble Mill With Feel
TTITLE9=Jar Of Funk
EXTD=
EXTT0=
EXTT1=
EXTT2=
EXTT3=
EXTT4=
EXTT5=
EXTT6=
EXTT7=
EXTT8=
EXTT9=
PLAYORDER=
